G04 Layer: BottomLayer*
G04 EasyEDA v5.9.42, Fri, 05 Apr 2019 14:57:40 GMT*
G04 4e9f10f097634dd6829a82e3e2597e5f*
G04 Gerber Generator version 0.2*
G04 Scale: 100 percent, Rotated: No, Reflected: No *
G04 Dimensions in inches *
G04 leading zeros omitted , absolute positions ,2 integer and 4 decimal *
%FSLAX24Y24*%
%MOIN*%
G90*
G70D02*

%ADD11C,0.063000*%
%ADD12C,0.062000*%
%ADD13C,0.150000*%
%ADD14C,0.020000*%

%LPD*%
G54D14*
G01X5150Y2150D02*
G01X6300Y2150D01*
G01X6400Y2250D01*
G01X5150Y3150D02*
G01X6286Y3150D01*
G01X6400Y3036D01*
G01X5150Y4150D02*
G01X5150Y4150D01*
G01X6400Y3825D01*
G01X5150Y5150D02*
G01X5150Y5150D01*
G01X6400Y4611D01*
G01X5150Y6150D02*
G01X5150Y6150D01*
G01X6400Y5400D01*
G01X5150Y7150D02*
G01X6113Y6186D01*
G01X6400Y6186D01*
G01X5150Y8150D02*
G01X6326Y6973D01*
G01X6400Y6973D01*
G01X5150Y9150D02*
G01X6400Y7900D01*
G01X6400Y7761D01*
G01X2150Y2150D02*
G01X988Y2150D01*
G01X888Y2250D01*
G01X2150Y3150D02*
G01X1001Y3150D01*
G01X888Y3036D01*
G01X2150Y4150D02*
G01X2150Y4150D01*
G01X888Y3825D01*
G01X2150Y5150D02*
G01X2150Y5150D01*
G01X888Y4611D01*
G01X2150Y6150D02*
G01X888Y5399D01*
G01X888Y5400D01*
G01X2150Y7150D02*
G01X1186Y6186D01*
G01X888Y6186D01*
G01X2150Y8150D02*
G01X973Y6973D01*
G01X888Y6973D01*
G01X2150Y9150D02*
G01X888Y7888D01*
G01X888Y7761D01*
G54D11*
G01X6400Y2250D03*
G01X6400Y3037D03*
G01X6400Y3824D03*
G01X6400Y4612D03*
G01X6400Y5399D03*
G01X6400Y6186D03*
G01X6400Y6974D03*
G01X6400Y7761D03*
G01X888Y2250D03*
G01X888Y3037D03*
G01X888Y3824D03*
G01X888Y4612D03*
G01X888Y5399D03*
G01X888Y6186D03*
G01X888Y6974D03*
G01X888Y7761D03*
G54D12*
G01X2150Y2150D03*
G01X2150Y3150D03*
G01X2150Y4150D03*
G01X2150Y5150D03*
G01X2150Y6150D03*
G01X2150Y7150D03*
G01X2150Y8150D03*
G01X2150Y9150D03*
G01X5150Y9150D03*
G01X5150Y8150D03*
G01X5150Y7150D03*
G01X5150Y6150D03*
G01X5150Y5150D03*
G01X5150Y4150D03*
G01X5150Y3150D03*
G01X5150Y2150D03*
G54D13*
G01X6400Y10250D03*
G01X900Y10250D03*
G01X900Y900D03*
G01X6400Y900D03*
M00*
M02*
