;Layer: Drill PTH
;EasyEDA v5.9.42, Fri, 05 Apr 2019 14:57:40 GMT
;4e9f10f097634dd6829a82e3e2597e5f
;Gerber Generator version 0.2
M48
INCH,LZ,00.0000
;Holesize 1 = 0.035 INCH
T01C0.035
;Holesize 2 = 0.045 INCH
T02C0.045
;Holesize 3 = 0.083 INCH
T03C0.083
%
G05
G90
T01
X+002150Y+002150
X+002150Y+003150
X+002150Y+004150
X+002150Y+005150
X+002150Y+006150
X+002150Y+007150
X+002150Y+008150
X+002150Y+009150
X+005150Y+009150
X+005150Y+008150
X+005150Y+007150
X+005150Y+006150
X+005150Y+005150
X+005150Y+004150
X+005150Y+003150
X+005150Y+002150
T02
X+006398Y+002250G85X+006401Y+002250
X+006390Y+003037G85X+006409Y+003037
X+006390Y+003824G85X+006409Y+003824
X+006398Y+004612G85X+006401Y+004612
X+006398Y+005399G85X+006401Y+005399
X+006398Y+006186G85X+006401Y+006186
X+006398Y+006974G85X+006401Y+006974
X+006398Y+007761G85X+006401Y+007761
X+000889Y+002250G85X+000887Y+002250
X+000889Y+003037G85X+000887Y+003037
X+000889Y+003824G85X+000887Y+003824
X+000889Y+004612G85X+000887Y+004612
X+000889Y+005399G85X+000887Y+005399
X+000889Y+006186G85X+000887Y+006186
X+000889Y+006974G85X+000887Y+006974
X+000889Y+007761G85X+000887Y+007761
T03
X+006400Y+010250
X+000900Y+010250
X+000900Y+000900
X+006400Y+000900
M30
