G04 Layer: TopSilkLayer*
G04 EasyEDA v5.9.42, Fri, 05 Apr 2019 14:57:40 GMT*
G04 4e9f10f097634dd6829a82e3e2597e5f*
G04 Gerber Generator version 0.2*
G04 Scale: 100 percent, Rotated: No, Reflected: No *
G04 Dimensions in inches *
G04 leading zeros omitted , absolute positions ,2 integer and 4 decimal *
%FSLAX24Y24*%
%MOIN*%
G90*
G70D02*

%ADD15C,0.005000*%
%ADD16C,0.024000*%
%ADD17C,0.008000*%
%ADD18C,0.007992*%
%ADD19C,0.006000*%

%LPD*%
G54D15*
G01X494Y11068D02*
G01X6793Y11068D01*
G01X6793Y8785D01*
G01X494Y8785D01*
G01X494Y11068D01*
G01X6793Y1620D02*
G01X494Y1620D01*
G54D16*
G01X1754Y8864D02*
G01X1754Y10793D01*
G01X2108Y10793D01*
G01X2108Y9336D01*
G01X2502Y9336D01*
G01X2502Y10753D01*
G01X2974Y10753D01*
G01X2974Y9336D01*
G01X3447Y9336D01*
G01X3447Y10753D01*
G01X3880Y10753D01*
G01X3880Y9376D01*
G01X4313Y9376D01*
G01X4313Y10753D01*
G01X5888Y10753D01*
G01X1754Y8824D02*
G01X1754Y8588D01*
G01X4313Y8588D01*
G54D15*
G01X493Y8788D02*
G01X493Y8068D01*
G01X493Y7458D02*
G01X493Y7278D01*
G01X493Y6668D02*
G01X493Y6488D01*
G01X493Y5878D02*
G01X493Y5708D01*
G01X493Y5098D02*
G01X493Y4918D01*
G01X493Y4308D02*
G01X493Y4128D01*
G01X493Y3518D02*
G01X493Y3338D01*
G01X493Y2728D02*
G01X493Y2558D01*
G01X493Y1948D02*
G01X493Y1618D01*
G01X6793Y1628D02*
G01X6793Y1938D01*
G01X6793Y2738D02*
G01X6793Y2548D01*
G01X6793Y3538D02*
G01X6793Y3328D01*
G01X6793Y4328D02*
G01X6793Y4118D01*
G01X6793Y5108D02*
G01X6793Y4908D01*
G01X6793Y5888D02*
G01X6793Y5698D01*
G01X6803Y6678D02*
G01X6803Y6478D01*
G01X6803Y7468D02*
G01X6803Y7278D01*
G01X6783Y8788D02*
G01X6793Y8788D01*
G01X6793Y8058D01*
G54D17*
G01X1650Y9650D02*
G01X2650Y9650D01*
G01X2650Y1650D01*
G01X1650Y1650D01*
G01X1650Y2400D01*
G54D18*
G01X1650Y9650D02*
G01X1650Y2400D01*
G54D17*
G01X5650Y1650D02*
G01X4650Y1650D01*
G01X4650Y9650D01*
G01X5650Y9650D01*
G01X5650Y8900D01*
G54D18*
G01X5650Y1650D02*
G01X5650Y8900D01*
G54D19*
G01X3142Y13800D02*
G01X3142Y13371D01*
G01X3000Y13800D02*
G01X3286Y13800D01*
G01X3421Y13534D02*
G01X3667Y13534D01*
G01X3667Y13575D01*
G01X3646Y13615D01*
G01X3626Y13636D01*
G01X3584Y13657D01*
G01X3523Y13657D01*
G01X3482Y13636D01*
G01X3442Y13596D01*
G01X3421Y13534D01*
G01X3421Y13494D01*
G01X3442Y13432D01*
G01X3482Y13390D01*
G01X3523Y13371D01*
G01X3584Y13371D01*
G01X3626Y13390D01*
G01X3667Y13432D01*
G01X3801Y13657D02*
G01X4026Y13371D01*
G01X4026Y13657D02*
G01X3801Y13371D01*
G01X4223Y13800D02*
G01X4223Y13453D01*
G01X4244Y13390D01*
G01X4284Y13371D01*
G01X4325Y13371D01*
G01X4161Y13657D02*
G01X4305Y13657D01*

%LPD*%
G36*
G01X3844Y2205D02*
G01X3757Y2205D01*
G01X3757Y2121D01*
G01X3661Y2121D01*
G01X3661Y2192D01*
G01X3578Y2192D01*
G01X3578Y2121D01*
G01X3496Y2121D01*
G01X3496Y2196D01*
G01X3409Y2196D01*
G01X3409Y2009D01*
G01X3844Y2009D01*
G01X3844Y2205D01*
G37*

%LPD*%
G36*
G01X3754Y2485D02*
G01X3732Y2486D01*
G01X3703Y2484D01*
G01X3677Y2480D01*
G01X3656Y2474D01*
G01X3640Y2465D01*
G01X3607Y2432D01*
G01X3567Y2371D01*
G01X3559Y2359D01*
G01X3552Y2350D01*
G01X3540Y2338D01*
G01X3526Y2334D01*
G01X3517Y2333D01*
G01X3507Y2332D01*
G01X3498Y2333D01*
G01X3492Y2334D01*
G01X3486Y2336D01*
G01X3482Y2338D01*
G01X3478Y2341D01*
G01X3474Y2349D01*
G01X3473Y2353D01*
G01X3474Y2358D01*
G01X3475Y2362D01*
G01X3477Y2365D01*
G01X3480Y2367D01*
G01X3484Y2369D01*
G01X3490Y2371D01*
G01X3540Y2371D01*
G01X3540Y2476D01*
G01X3499Y2476D01*
G01X3479Y2474D01*
G01X3462Y2471D01*
G01X3450Y2467D01*
G01X3439Y2460D01*
G01X3430Y2451D01*
G01X3421Y2439D01*
G01X3413Y2425D01*
G01X3407Y2408D01*
G01X3403Y2390D01*
G01X3400Y2371D01*
G01X3400Y2330D01*
G01X3403Y2313D01*
G01X3407Y2296D01*
G01X3413Y2282D01*
G01X3420Y2268D01*
G01X3428Y2257D01*
G01X3438Y2247D01*
G01X3448Y2240D01*
G01X3462Y2234D01*
G01X3478Y2230D01*
G01X3498Y2228D01*
G01X3538Y2228D01*
G01X3553Y2230D01*
G01X3567Y2232D01*
G01X3578Y2236D01*
G01X3589Y2241D01*
G01X3598Y2246D01*
G01X3607Y2252D01*
G01X3613Y2259D01*
G01X3621Y2267D01*
G01X3630Y2280D01*
G01X3642Y2295D01*
G01X3655Y2315D01*
G01X3667Y2334D01*
G01X3678Y2349D01*
G01X3686Y2360D01*
G01X3694Y2367D01*
G01X3701Y2372D01*
G01X3712Y2376D01*
G01X3726Y2378D01*
G01X3752Y2378D01*
G01X3759Y2377D01*
G01X3771Y2373D01*
G01X3775Y2369D01*
G01X3777Y2366D01*
G01X3779Y2361D01*
G01X3780Y2355D01*
G01X3779Y2351D01*
G01X3778Y2346D01*
G01X3776Y2343D01*
G01X3773Y2340D01*
G01X3768Y2338D01*
G01X3761Y2337D01*
G01X3752Y2336D01*
G01X3688Y2336D01*
G01X3688Y2230D01*
G01X3717Y2230D01*
G01X3740Y2231D01*
G01X3760Y2233D01*
G01X3777Y2236D01*
G01X3792Y2240D01*
G01X3804Y2247D01*
G01X3816Y2256D01*
G01X3826Y2268D01*
G01X3836Y2282D01*
G01X3843Y2299D01*
G01X3848Y2318D01*
G01X3851Y2338D01*
G01X3853Y2361D01*
G01X3849Y2399D01*
G01X3844Y2416D01*
G01X3838Y2432D01*
G01X3830Y2447D01*
G01X3821Y2459D01*
G01X3811Y2468D01*
G01X3801Y2475D01*
G01X3788Y2479D01*
G01X3773Y2483D01*
G01X3754Y2485D01*
G37*

%LPD*%
G36*
G01X3569Y2765D02*
G01X3530Y2765D01*
G01X3511Y2764D01*
G01X3495Y2763D01*
G01X3481Y2762D01*
G01X3471Y2761D01*
G01X3461Y2757D01*
G01X3452Y2754D01*
G01X3436Y2744D01*
G01X3430Y2736D01*
G01X3425Y2728D01*
G01X3420Y2717D01*
G01X3415Y2705D01*
G01X3413Y2692D01*
G01X3410Y2676D01*
G01X3409Y2657D01*
G01X3409Y2521D01*
G01X3844Y2521D01*
G01X3844Y2634D01*
G01X3669Y2634D01*
G01X3669Y2665D01*
G01X3668Y2682D01*
G01X3666Y2698D01*
G01X3663Y2712D01*
G01X3659Y2725D01*
G01X3653Y2735D01*
G01X3646Y2744D01*
G01X3638Y2751D01*
G01X3618Y2759D01*
G01X3604Y2762D01*
G01X3588Y2764D01*
G01X3569Y2765D01*
G37*

%LPC*%
G36*
G01X3555Y2671D02*
G01X3519Y2671D01*
G01X3509Y2670D01*
G01X3500Y2669D01*
G01X3494Y2667D01*
G01X3490Y2663D01*
G01X3487Y2659D01*
G01X3485Y2653D01*
G01X3484Y2644D01*
G01X3484Y2634D01*
G01X3594Y2634D01*
G01X3594Y2642D01*
G01X3593Y2650D01*
G01X3592Y2655D01*
G01X3590Y2660D01*
G01X3586Y2663D01*
G01X3582Y2667D01*
G01X3575Y2669D01*
G01X3555Y2671D01*
G37*

%LPD*%
G36*
G01X3844Y2961D02*
G01X3409Y2961D01*
G01X3409Y2898D01*
G01X3453Y2847D01*
G01X3478Y2778D01*
G01X3530Y2778D01*
G01X3530Y2806D01*
G01X3531Y2819D01*
G01X3532Y2830D01*
G01X3534Y2836D01*
G01X3537Y2842D01*
G01X3541Y2846D01*
G01X3545Y2848D01*
G01X3550Y2851D01*
G01X3557Y2851D01*
G01X3570Y2852D01*
G01X3588Y2852D01*
G01X3611Y2853D01*
G01X3844Y2853D01*
G01X3844Y2961D01*
G37*

%LPD*%
G36*
G01X3533Y3245D02*
G01X3513Y3246D01*
G01X3490Y3244D01*
G01X3469Y3238D01*
G01X3450Y3228D01*
G01X3432Y3213D01*
G01X3409Y3173D01*
G01X3401Y3115D01*
G01X3401Y3100D01*
G01X3403Y3085D01*
G01X3406Y3072D01*
G01X3411Y3059D01*
G01X3417Y3048D01*
G01X3424Y3038D01*
G01X3432Y3028D01*
G01X3452Y3014D01*
G01X3463Y3009D01*
G01X3473Y3005D01*
G01X3495Y3001D01*
G01X3508Y3000D01*
G01X3523Y2999D01*
G01X3540Y2998D01*
G01X3557Y2998D01*
G01X3557Y3096D01*
G01X3502Y3096D01*
G01X3491Y3097D01*
G01X3483Y3099D01*
G01X3476Y3101D01*
G01X3470Y3109D01*
G01X3468Y3115D01*
G01X3467Y3121D01*
G01X3469Y3131D01*
G01X3472Y3135D01*
G01X3480Y3141D01*
G01X3487Y3143D01*
G01X3494Y3144D01*
G01X3503Y3144D01*
G01X3515Y3143D01*
G01X3530Y3140D01*
G01X3547Y3133D01*
G01X3567Y3125D01*
G01X3595Y3109D01*
G01X3641Y3083D01*
G01X3703Y3046D01*
G01X3782Y2998D01*
G01X3844Y2998D01*
G01X3844Y3238D01*
G01X3769Y3238D01*
G01X3769Y3119D01*
G01X3708Y3159D01*
G01X3658Y3192D01*
G01X3619Y3215D01*
G01X3592Y3228D01*
G01X3572Y3236D01*
G01X3552Y3242D01*
G01X3533Y3245D01*
G37*

%LPD*%
G36*
G01X3762Y3642D02*
G01X3682Y3642D01*
G01X3664Y3639D01*
G01X3650Y3635D01*
G01X3638Y3628D01*
G01X3629Y3620D01*
G01X3621Y3608D01*
G01X3614Y3594D01*
G01X3609Y3576D01*
G01X3604Y3592D01*
G01X3599Y3605D01*
G01X3592Y3615D01*
G01X3586Y3623D01*
G01X3576Y3628D01*
G01X3565Y3632D01*
G01X3550Y3634D01*
G01X3506Y3634D01*
G01X3484Y3630D01*
G01X3465Y3625D01*
G01X3451Y3617D01*
G01X3439Y3608D01*
G01X3430Y3598D01*
G01X3423Y3586D01*
G01X3417Y3573D01*
G01X3413Y3558D01*
G01X3411Y3539D01*
G01X3409Y3517D01*
G01X3409Y3380D01*
G01X3844Y3380D01*
G01X3844Y3511D01*
G01X3843Y3542D01*
G01X3842Y3567D01*
G01X3839Y3587D01*
G01X3836Y3601D01*
G01X3831Y3611D01*
G01X3824Y3619D01*
G01X3816Y3627D01*
G01X3807Y3632D01*
G01X3794Y3637D01*
G01X3780Y3640D01*
G01X3762Y3642D01*
G37*

%LPC*%
G36*
G01X3728Y3530D02*
G01X3688Y3530D01*
G01X3675Y3529D01*
G01X3666Y3528D01*
G01X3659Y3526D01*
G01X3655Y3523D01*
G01X3652Y3519D01*
G01X3650Y3513D01*
G01X3648Y3504D01*
G01X3648Y3492D01*
G01X3769Y3492D01*
G01X3769Y3503D01*
G01X3767Y3512D01*
G01X3765Y3519D01*
G01X3761Y3523D01*
G01X3757Y3526D01*
G01X3750Y3528D01*
G01X3740Y3529D01*
G01X3728Y3530D01*
G37*
G36*
G01X3542Y3529D02*
G01X3525Y3530D01*
G01X3515Y3529D01*
G01X3507Y3528D01*
G01X3501Y3527D01*
G01X3496Y3526D01*
G01X3492Y3524D01*
G01X3489Y3522D01*
G01X3487Y3519D01*
G01X3486Y3517D01*
G01X3485Y3513D01*
G01X3484Y3507D01*
G01X3484Y3492D01*
G01X3580Y3492D01*
G01X3580Y3503D01*
G01X3579Y3511D01*
G01X3578Y3517D01*
G01X3575Y3522D01*
G01X3571Y3526D01*
G01X3565Y3527D01*
G01X3556Y3528D01*
G01X3542Y3529D01*
G37*

%LPD*%
G36*
G01X3551Y3935D02*
G01X3528Y3936D01*
G01X3501Y3934D01*
G01X3479Y3931D01*
G01X3461Y3925D01*
G01X3446Y3917D01*
G01X3435Y3908D01*
G01X3426Y3898D01*
G01X3419Y3885D01*
G01X3415Y3871D01*
G01X3410Y3830D01*
G01X3409Y3763D01*
G01X3409Y3684D01*
G01X3844Y3684D01*
G01X3844Y3796D01*
G01X3648Y3796D01*
G01X3648Y3807D01*
G01X3650Y3815D01*
G01X3652Y3821D01*
G01X3655Y3826D01*
G01X3661Y3828D01*
G01X3671Y3829D01*
G01X3683Y3830D01*
G01X3844Y3830D01*
G01X3844Y3936D01*
G01X3728Y3936D01*
G01X3705Y3935D01*
G01X3686Y3935D01*
G01X3673Y3934D01*
G01X3665Y3932D01*
G01X3658Y3931D01*
G01X3652Y3928D01*
G01X3645Y3924D01*
G01X3638Y3919D01*
G01X3632Y3911D01*
G01X3626Y3901D01*
G01X3621Y3889D01*
G01X3617Y3873D01*
G01X3614Y3890D01*
G01X3610Y3905D01*
G01X3603Y3915D01*
G01X3596Y3923D01*
G01X3585Y3929D01*
G01X3570Y3932D01*
G01X3551Y3935D01*
G37*

%LPC*%
G36*
G01X3553Y3830D02*
G01X3507Y3830D01*
G01X3499Y3829D01*
G01X3494Y3826D01*
G01X3490Y3823D01*
G01X3487Y3819D01*
G01X3485Y3813D01*
G01X3484Y3805D01*
G01X3484Y3796D01*
G01X3580Y3796D01*
G01X3579Y3805D01*
G01X3578Y3813D01*
G01X3577Y3819D01*
G01X3575Y3823D01*
G01X3571Y3826D01*
G01X3563Y3829D01*
G01X3553Y3830D01*
G37*

%LPD*%
G36*
G01X3844Y4176D02*
G01X3757Y4176D01*
G01X3757Y4092D01*
G01X3661Y4092D01*
G01X3661Y4163D01*
G01X3578Y4163D01*
G01X3578Y4092D01*
G01X3496Y4092D01*
G01X3496Y4169D01*
G01X3409Y4169D01*
G01X3409Y3980D01*
G01X3844Y3980D01*
G01X3844Y4176D01*
G37*

%LPD*%
G36*
G01X3844Y4353D02*
G01X3844Y4469D01*
G01X3409Y4403D01*
G01X3409Y4240D01*
G01X3844Y4182D01*
G01X3844Y4300D01*
G01X3765Y4307D01*
G01X3765Y4346D01*
G01X3844Y4353D01*
G37*

%LPC*%
G36*
G01X3688Y4305D02*
G01X3688Y4344D01*
G01X3649Y4339D01*
G01X3606Y4335D01*
G01X3558Y4330D01*
G01X3505Y4326D01*
G01X3564Y4319D01*
G01X3614Y4313D01*
G01X3655Y4308D01*
G01X3688Y4305D01*
G37*

%LPD*%
G36*
G01X3715Y4750D02*
G01X3563Y4750D01*
G01X3534Y4749D01*
G01X3511Y4748D01*
G01X3492Y4747D01*
G01X3480Y4746D01*
G01X3469Y4743D01*
G01X3459Y4739D01*
G01X3450Y4733D01*
G01X3440Y4726D01*
G01X3433Y4718D01*
G01X3426Y4708D01*
G01X3421Y4696D01*
G01X3417Y4682D01*
G01X3411Y4640D01*
G01X3409Y4571D01*
G01X3409Y4488D01*
G01X3844Y4488D01*
G01X3844Y4630D01*
G01X3843Y4649D01*
G01X3842Y4665D01*
G01X3841Y4679D01*
G01X3840Y4690D01*
G01X3837Y4700D01*
G01X3833Y4709D01*
G01X3829Y4717D01*
G01X3823Y4725D01*
G01X3817Y4731D01*
G01X3810Y4736D01*
G01X3802Y4740D01*
G01X3792Y4744D01*
G01X3780Y4746D01*
G01X3763Y4748D01*
G01X3741Y4749D01*
G01X3715Y4750D01*
G37*

%LPC*%
G36*
G01X3725Y4636D02*
G01X3513Y4636D01*
G01X3505Y4635D01*
G01X3495Y4633D01*
G01X3489Y4629D01*
G01X3486Y4626D01*
G01X3484Y4616D01*
G01X3484Y4601D01*
G01X3769Y4601D01*
G01X3769Y4611D01*
G01X3767Y4620D01*
G01X3764Y4626D01*
G01X3759Y4630D01*
G01X3752Y4633D01*
G01X3741Y4635D01*
G01X3725Y4636D01*
G37*

%LPD*%
G36*
G01X3742Y5055D02*
G01X3701Y5055D01*
G01X3682Y5054D01*
G01X3664Y5051D01*
G01X3650Y5047D01*
G01X3638Y5040D01*
G01X3629Y5032D01*
G01X3621Y5020D01*
G01X3614Y5005D01*
G01X3609Y4988D01*
G01X3604Y5003D01*
G01X3599Y5017D01*
G01X3592Y5027D01*
G01X3586Y5034D01*
G01X3576Y5040D01*
G01X3565Y5044D01*
G01X3550Y5046D01*
G01X3506Y5046D01*
G01X3484Y5042D01*
G01X3465Y5037D01*
G01X3451Y5030D01*
G01X3439Y5020D01*
G01X3430Y5010D01*
G01X3423Y4998D01*
G01X3417Y4986D01*
G01X3413Y4970D01*
G01X3411Y4951D01*
G01X3409Y4930D01*
G01X3409Y4792D01*
G01X3844Y4792D01*
G01X3844Y4923D01*
G01X3843Y4954D01*
G01X3842Y4979D01*
G01X3839Y4999D01*
G01X3836Y5013D01*
G01X3831Y5023D01*
G01X3824Y5032D01*
G01X3816Y5039D01*
G01X3807Y5044D01*
G01X3794Y5049D01*
G01X3780Y5052D01*
G01X3762Y5054D01*
G01X3742Y5055D01*
G37*

%LPC*%
G36*
G01X3728Y4942D02*
G01X3688Y4942D01*
G01X3675Y4941D01*
G01X3666Y4940D01*
G01X3659Y4938D01*
G01X3655Y4936D01*
G01X3652Y4931D01*
G01X3650Y4925D01*
G01X3648Y4916D01*
G01X3648Y4905D01*
G01X3769Y4905D01*
G01X3769Y4915D01*
G01X3767Y4924D01*
G01X3765Y4930D01*
G01X3757Y4938D01*
G01X3750Y4940D01*
G01X3740Y4941D01*
G01X3728Y4942D01*
G37*
G36*
G01X3542Y4941D02*
G01X3525Y4942D01*
G01X3515Y4941D01*
G01X3507Y4940D01*
G01X3501Y4939D01*
G01X3496Y4938D01*
G01X3492Y4935D01*
G01X3489Y4933D01*
G01X3487Y4930D01*
G01X3486Y4928D01*
G01X3485Y4924D01*
G01X3484Y4919D01*
G01X3484Y4905D01*
G01X3580Y4905D01*
G01X3580Y4915D01*
G01X3579Y4923D01*
G01X3578Y4929D01*
G01X3575Y4934D01*
G01X3565Y4939D01*
G01X3556Y4940D01*
G01X3542Y4941D01*
G37*

%LPD*%
G36*
G01X3719Y5353D02*
G01X3532Y5353D01*
G01X3511Y5352D01*
G01X3494Y5351D01*
G01X3482Y5348D01*
G01X3469Y5344D01*
G01X3457Y5338D01*
G01X3446Y5330D01*
G01X3435Y5321D01*
G01X3425Y5311D01*
G01X3417Y5299D01*
G01X3411Y5286D01*
G01X3406Y5271D01*
G01X3402Y5256D01*
G01X3400Y5240D01*
G01X3400Y5205D01*
G01X3403Y5188D01*
G01X3406Y5173D01*
G01X3411Y5159D01*
G01X3418Y5145D01*
G01X3426Y5134D01*
G01X3436Y5123D01*
G01X3446Y5115D01*
G01X3458Y5107D01*
G01X3470Y5101D01*
G01X3483Y5097D01*
G01X3496Y5094D01*
G01X3512Y5093D01*
G01X3533Y5092D01*
G01X3721Y5092D01*
G01X3742Y5094D01*
G01X3757Y5096D01*
G01X3771Y5098D01*
G01X3783Y5102D01*
G01X3795Y5108D01*
G01X3807Y5115D01*
G01X3827Y5135D01*
G01X3835Y5147D01*
G01X3842Y5159D01*
G01X3850Y5189D01*
G01X3852Y5205D01*
G01X3853Y5223D01*
G01X3852Y5240D01*
G01X3850Y5257D01*
G01X3846Y5273D01*
G01X3840Y5288D01*
G01X3834Y5300D01*
G01X3826Y5312D01*
G01X3816Y5322D01*
G01X3805Y5332D01*
G01X3794Y5339D01*
G01X3782Y5344D01*
G01X3770Y5348D01*
G01X3757Y5351D01*
G01X3740Y5352D01*
G01X3719Y5353D01*
G37*

%LPC*%
G36*
G01X3751Y5240D02*
G01X3496Y5240D01*
G01X3487Y5239D01*
G01X3482Y5238D01*
G01X3478Y5235D01*
G01X3476Y5232D01*
G01X3474Y5228D01*
G01X3473Y5223D01*
G01X3475Y5215D01*
G01X3477Y5212D01*
G01X3480Y5209D01*
G01X3485Y5207D01*
G01X3493Y5206D01*
G01X3505Y5205D01*
G01X3754Y5205D01*
G01X3764Y5207D01*
G01X3771Y5209D01*
G01X3775Y5211D01*
G01X3777Y5213D01*
G01X3779Y5217D01*
G01X3780Y5223D01*
G01X3779Y5228D01*
G01X3777Y5232D01*
G01X3769Y5238D01*
G01X3762Y5239D01*
G01X3751Y5240D01*
G37*

%LPD*%
G36*
G01X3844Y5540D02*
G01X3844Y5655D01*
G01X3409Y5590D01*
G01X3409Y5428D01*
G01X3844Y5369D01*
G01X3844Y5486D01*
G01X3765Y5494D01*
G01X3765Y5534D01*
G01X3844Y5540D01*
G37*

%LPC*%
G36*
G01X3688Y5492D02*
G01X3688Y5530D01*
G01X3649Y5526D01*
G01X3606Y5522D01*
G01X3558Y5518D01*
G01X3505Y5513D01*
G01X3564Y5506D01*
G01X3614Y5500D01*
G01X3655Y5495D01*
G01X3688Y5492D01*
G37*

%LPD*%
G36*
G01X3551Y5927D02*
G01X3528Y5928D01*
G01X3501Y5926D01*
G01X3479Y5923D01*
G01X3461Y5917D01*
G01X3446Y5909D01*
G01X3435Y5900D01*
G01X3426Y5889D01*
G01X3419Y5877D01*
G01X3415Y5863D01*
G01X3410Y5822D01*
G01X3409Y5755D01*
G01X3409Y5675D01*
G01X3844Y5675D01*
G01X3844Y5788D01*
G01X3648Y5788D01*
G01X3648Y5798D01*
G01X3650Y5807D01*
G01X3652Y5813D01*
G01X3655Y5817D01*
G01X3661Y5819D01*
G01X3671Y5821D01*
G01X3683Y5822D01*
G01X3698Y5823D01*
G01X3844Y5823D01*
G01X3844Y5928D01*
G01X3728Y5928D01*
G01X3705Y5927D01*
G01X3686Y5927D01*
G01X3673Y5926D01*
G01X3665Y5925D01*
G01X3658Y5923D01*
G01X3652Y5919D01*
G01X3638Y5911D01*
G01X3632Y5903D01*
G01X3626Y5893D01*
G01X3621Y5881D01*
G01X3617Y5865D01*
G01X3614Y5882D01*
G01X3610Y5896D01*
G01X3603Y5907D01*
G01X3596Y5915D01*
G01X3585Y5920D01*
G01X3570Y5924D01*
G01X3551Y5927D01*
G37*

%LPC*%
G36*
G01X3540Y5823D02*
G01X3517Y5823D01*
G01X3507Y5822D01*
G01X3499Y5821D01*
G01X3494Y5818D01*
G01X3490Y5815D01*
G01X3487Y5810D01*
G01X3485Y5804D01*
G01X3484Y5797D01*
G01X3484Y5788D01*
G01X3580Y5788D01*
G01X3579Y5797D01*
G01X3578Y5804D01*
G01X3577Y5810D01*
G01X3575Y5815D01*
G01X3571Y5818D01*
G01X3563Y5821D01*
G01X3553Y5822D01*
G01X3540Y5823D01*
G37*

%LPD*%
G36*
G01X3741Y6232D02*
G01X3511Y6232D01*
G01X3492Y6231D01*
G01X3480Y6230D01*
G01X3469Y6227D01*
G01X3459Y6223D01*
G01X3450Y6217D01*
G01X3440Y6211D01*
G01X3433Y6202D01*
G01X3426Y6192D01*
G01X3421Y6180D01*
G01X3417Y6167D01*
G01X3411Y6124D01*
G01X3409Y6055D01*
G01X3409Y5971D01*
G01X3844Y5971D01*
G01X3844Y6113D01*
G01X3843Y6133D01*
G01X3842Y6149D01*
G01X3841Y6163D01*
G01X3840Y6175D01*
G01X3837Y6184D01*
G01X3833Y6193D01*
G01X3829Y6201D01*
G01X3823Y6209D01*
G01X3817Y6215D01*
G01X3810Y6220D01*
G01X3802Y6224D01*
G01X3792Y6228D01*
G01X3780Y6230D01*
G01X3763Y6231D01*
G01X3741Y6232D01*
G37*

%LPC*%
G36*
G01X3725Y6119D02*
G01X3500Y6119D01*
G01X3495Y6117D01*
G01X3489Y6113D01*
G01X3486Y6109D01*
G01X3485Y6105D01*
G01X3484Y6100D01*
G01X3484Y6084D01*
G01X3769Y6084D01*
G01X3769Y6095D01*
G01X3767Y6104D01*
G01X3764Y6110D01*
G01X3759Y6115D01*
G01X3752Y6117D01*
G01X3741Y6118D01*
G01X3725Y6119D01*
G37*

%LPD*%
G36*
G01X3588Y6615D02*
G01X3495Y6615D01*
G01X3481Y6613D01*
G01X3461Y6609D01*
G01X3452Y6605D01*
G01X3444Y6600D01*
G01X3436Y6594D01*
G01X3430Y6587D01*
G01X3425Y6578D01*
G01X3420Y6568D01*
G01X3415Y6557D01*
G01X3413Y6543D01*
G01X3410Y6527D01*
G01X3409Y6507D01*
G01X3409Y6373D01*
G01X3844Y6373D01*
G01X3844Y6486D01*
G01X3669Y6486D01*
G01X3669Y6515D01*
G01X3668Y6533D01*
G01X3666Y6549D01*
G01X3663Y6563D01*
G01X3659Y6576D01*
G01X3653Y6586D01*
G01X3646Y6595D01*
G01X3638Y6602D01*
G01X3628Y6607D01*
G01X3618Y6611D01*
G01X3604Y6613D01*
G01X3588Y6615D01*
G37*

%LPC*%
G36*
G01X3565Y6521D02*
G01X3509Y6521D01*
G01X3500Y6520D01*
G01X3490Y6515D01*
G01X3487Y6510D01*
G01X3485Y6504D01*
G01X3484Y6496D01*
G01X3484Y6486D01*
G01X3594Y6486D01*
G01X3594Y6494D01*
G01X3593Y6501D01*
G01X3592Y6507D01*
G01X3590Y6512D01*
G01X3582Y6518D01*
G01X3575Y6520D01*
G01X3565Y6521D01*
G37*

%LPD*%
G36*
G01X3663Y6907D02*
G01X3588Y6907D01*
G01X3557Y6906D01*
G01X3532Y6906D01*
G01X3511Y6905D01*
G01X3494Y6903D01*
G01X3482Y6901D01*
G01X3469Y6897D01*
G01X3457Y6891D01*
G01X3446Y6884D01*
G01X3435Y6874D01*
G01X3425Y6864D01*
G01X3417Y6852D01*
G01X3411Y6838D01*
G01X3406Y6824D01*
G01X3402Y6809D01*
G01X3400Y6792D01*
G01X3400Y6758D01*
G01X3403Y6741D01*
G01X3406Y6726D01*
G01X3411Y6711D01*
G01X3418Y6698D01*
G01X3426Y6686D01*
G01X3436Y6676D01*
G01X3446Y6667D01*
G01X3458Y6660D01*
G01X3470Y6655D01*
G01X3483Y6651D01*
G01X3496Y6648D01*
G01X3512Y6647D01*
G01X3533Y6646D01*
G01X3558Y6645D01*
G01X3588Y6644D01*
G01X3663Y6644D01*
G01X3694Y6645D01*
G01X3721Y6646D01*
G01X3742Y6647D01*
G01X3757Y6648D01*
G01X3771Y6651D01*
G01X3783Y6655D01*
G01X3795Y6661D01*
G01X3807Y6669D01*
G01X3817Y6678D01*
G01X3827Y6688D01*
G01X3835Y6700D01*
G01X3842Y6713D01*
G01X3846Y6727D01*
G01X3850Y6742D01*
G01X3852Y6759D01*
G01X3853Y6776D01*
G01X3852Y6794D01*
G01X3850Y6810D01*
G01X3846Y6826D01*
G01X3840Y6840D01*
G01X3834Y6853D01*
G01X3826Y6865D01*
G01X3816Y6875D01*
G01X3805Y6884D01*
G01X3794Y6892D01*
G01X3782Y6897D01*
G01X3770Y6901D01*
G01X3757Y6903D01*
G01X3740Y6905D01*
G01X3719Y6906D01*
G01X3694Y6906D01*
G01X3663Y6907D01*
G37*

%LPC*%
G36*
G01X3721Y6794D02*
G01X3521Y6794D01*
G01X3507Y6793D01*
G01X3496Y6793D01*
G01X3487Y6792D01*
G01X3482Y6790D01*
G01X3478Y6788D01*
G01X3476Y6785D01*
G01X3474Y6781D01*
G01X3473Y6776D01*
G01X3474Y6772D01*
G01X3475Y6769D01*
G01X3477Y6765D01*
G01X3480Y6763D01*
G01X3485Y6760D01*
G01X3493Y6759D01*
G01X3505Y6758D01*
G01X3521Y6757D01*
G01X3723Y6757D01*
G01X3741Y6758D01*
G01X3754Y6759D01*
G01X3764Y6760D01*
G01X3771Y6761D01*
G01X3775Y6763D01*
G01X3779Y6771D01*
G01X3780Y6776D01*
G01X3779Y6780D01*
G01X3777Y6785D01*
G01X3773Y6788D01*
G01X3769Y6790D01*
G01X3762Y6792D01*
G01X3751Y6793D01*
G01X3738Y6793D01*
G01X3721Y6794D01*
G37*

%LPD*%
G36*
G01X3569Y7209D02*
G01X3550Y7209D01*
G01X3525Y7208D01*
G01X3503Y7206D01*
G01X3484Y7203D01*
G01X3469Y7198D01*
G01X3455Y7192D01*
G01X3442Y7183D01*
G01X3430Y7171D01*
G01X3419Y7155D01*
G01X3411Y7138D01*
G01X3405Y7118D01*
G01X3401Y7096D01*
G01X3400Y7073D01*
G01X3401Y7049D01*
G01X3405Y7027D01*
G01X3413Y7008D01*
G01X3423Y6990D01*
G01X3435Y6976D01*
G01X3448Y6965D01*
G01X3461Y6957D01*
G01X3475Y6953D01*
G01X3491Y6950D01*
G01X3511Y6947D01*
G01X3536Y6946D01*
G01X3734Y6946D01*
G01X3749Y6947D01*
G01X3761Y6948D01*
G01X3773Y6951D01*
G01X3784Y6954D01*
G01X3794Y6959D01*
G01X3805Y6965D01*
G01X3814Y6972D01*
G01X3823Y6980D01*
G01X3831Y6991D01*
G01X3845Y7015D01*
G01X3849Y7028D01*
G01X3852Y7042D01*
G01X3853Y7055D01*
G01X3852Y7067D01*
G01X3850Y7078D01*
G01X3847Y7088D01*
G01X3842Y7098D01*
G01X3837Y7106D01*
G01X3830Y7113D01*
G01X3822Y7120D01*
G01X3813Y7126D01*
G01X3844Y7136D01*
G01X3844Y7209D01*
G01X3611Y7209D01*
G01X3611Y7076D01*
G01X3676Y7076D01*
G01X3676Y7098D01*
G01X3753Y7098D01*
G01X3762Y7096D01*
G01X3769Y7094D01*
G01X3773Y7092D01*
G01X3777Y7088D01*
G01X3779Y7083D01*
G01X3780Y7078D01*
G01X3779Y7073D01*
G01X3777Y7068D01*
G01X3774Y7065D01*
G01X3764Y7061D01*
G01X3755Y7059D01*
G01X3496Y7059D01*
G01X3487Y7061D01*
G01X3482Y7063D01*
G01X3478Y7065D01*
G01X3476Y7068D01*
G01X3474Y7072D01*
G01X3473Y7076D01*
G01X3474Y7082D01*
G01X3478Y7090D01*
G01X3482Y7092D01*
G01X3489Y7093D01*
G01X3499Y7094D01*
G01X3512Y7095D01*
G01X3530Y7096D01*
G01X3569Y7096D01*
G01X3569Y7209D01*
G37*

%LPD*%
G36*
G01X3663Y7511D02*
G01X3588Y7511D01*
G01X3557Y7510D01*
G01X3532Y7509D01*
G01X3511Y7508D01*
G01X3494Y7507D01*
G01X3482Y7504D01*
G01X3469Y7500D01*
G01X3457Y7494D01*
G01X3446Y7486D01*
G01X3435Y7477D01*
G01X3425Y7467D01*
G01X3417Y7455D01*
G01X3411Y7442D01*
G01X3406Y7428D01*
G01X3402Y7413D01*
G01X3400Y7396D01*
G01X3400Y7361D01*
G01X3406Y7329D01*
G01X3411Y7315D01*
G01X3418Y7302D01*
G01X3426Y7290D01*
G01X3436Y7280D01*
G01X3446Y7271D01*
G01X3458Y7264D01*
G01X3470Y7258D01*
G01X3483Y7254D01*
G01X3496Y7251D01*
G01X3512Y7250D01*
G01X3533Y7249D01*
G01X3558Y7249D01*
G01X3588Y7248D01*
G01X3663Y7248D01*
G01X3694Y7249D01*
G01X3721Y7249D01*
G01X3742Y7250D01*
G01X3757Y7251D01*
G01X3771Y7254D01*
G01X3795Y7264D01*
G01X3807Y7271D01*
G01X3827Y7291D01*
G01X3835Y7303D01*
G01X3842Y7317D01*
G01X3846Y7331D01*
G01X3850Y7346D01*
G01X3852Y7363D01*
G01X3853Y7380D01*
G01X3852Y7397D01*
G01X3850Y7414D01*
G01X3846Y7429D01*
G01X3840Y7444D01*
G01X3834Y7457D01*
G01X3826Y7469D01*
G01X3816Y7479D01*
G01X3805Y7488D01*
G01X3794Y7495D01*
G01X3782Y7501D01*
G01X3770Y7505D01*
G01X3757Y7507D01*
G01X3740Y7509D01*
G01X3719Y7510D01*
G01X3694Y7510D01*
G01X3663Y7511D01*
G37*

%LPC*%
G36*
G01X3721Y7398D02*
G01X3521Y7398D01*
G01X3507Y7397D01*
G01X3496Y7396D01*
G01X3487Y7395D01*
G01X3482Y7394D01*
G01X3478Y7392D01*
G01X3474Y7384D01*
G01X3473Y7380D01*
G01X3475Y7372D01*
G01X3477Y7369D01*
G01X3480Y7367D01*
G01X3485Y7364D01*
G01X3493Y7363D01*
G01X3505Y7362D01*
G01X3521Y7361D01*
G01X3723Y7361D01*
G01X3741Y7362D01*
G01X3754Y7362D01*
G01X3764Y7363D01*
G01X3771Y7365D01*
G01X3775Y7367D01*
G01X3777Y7370D01*
G01X3779Y7374D01*
G01X3780Y7380D01*
G01X3779Y7384D01*
G01X3777Y7388D01*
G01X3773Y7392D01*
G01X3769Y7394D01*
G01X3762Y7395D01*
G01X3751Y7396D01*
G01X3738Y7397D01*
G01X3721Y7398D01*
G37*

%LPD*%
G36*
G01X3729Y7788D02*
G01X3409Y7788D01*
G01X3409Y7675D01*
G01X3726Y7675D01*
G01X3735Y7674D01*
G01X3742Y7674D01*
G01X3748Y7673D01*
G01X3752Y7673D01*
G01X3756Y7671D01*
G01X3759Y7669D01*
G01X3763Y7665D01*
G01X3765Y7662D01*
G01X3767Y7657D01*
G01X3768Y7652D01*
G01X3769Y7646D01*
G01X3769Y7644D01*
G01X3768Y7640D01*
G01X3768Y7636D01*
G01X3767Y7632D01*
G01X3844Y7632D01*
G01X3844Y7688D01*
G01X3843Y7706D01*
G01X3842Y7721D01*
G01X3840Y7734D01*
G01X3838Y7744D01*
G01X3834Y7753D01*
G01X3829Y7761D01*
G01X3823Y7769D01*
G01X3817Y7775D01*
G01X3809Y7779D01*
G01X3801Y7782D01*
G01X3792Y7785D01*
G01X3784Y7786D01*
G01X3771Y7787D01*
G01X3753Y7787D01*
G01X3729Y7788D01*
G37*

%LPD*%
G36*
G01X3844Y7944D02*
G01X3409Y7944D01*
G01X3409Y7832D01*
G01X3844Y7832D01*
G01X3844Y7944D01*
G37*

%LPD*%
G36*
G01X3569Y8250D02*
G01X3550Y8250D01*
G01X3525Y8249D01*
G01X3503Y8247D01*
G01X3484Y8244D01*
G01X3469Y8240D01*
G01X3455Y8233D01*
G01X3442Y8224D01*
G01X3430Y8211D01*
G01X3419Y8196D01*
G01X3411Y8179D01*
G01X3405Y8159D01*
G01X3401Y8138D01*
G01X3400Y8115D01*
G01X3401Y8090D01*
G01X3405Y8068D01*
G01X3413Y8049D01*
G01X3423Y8032D01*
G01X3435Y8017D01*
G01X3448Y8007D01*
G01X3461Y7998D01*
G01X3475Y7994D01*
G01X3491Y7990D01*
G01X3511Y7988D01*
G01X3536Y7987D01*
G01X3565Y7986D01*
G01X3694Y7986D01*
G01X3715Y7987D01*
G01X3734Y7987D01*
G01X3749Y7988D01*
G01X3773Y7992D01*
G01X3784Y7996D01*
G01X3794Y8000D01*
G01X3805Y8005D01*
G01X3823Y8021D01*
G01X3831Y8032D01*
G01X3845Y8056D01*
G01X3849Y8069D01*
G01X3852Y8083D01*
G01X3853Y8096D01*
G01X3852Y8108D01*
G01X3850Y8119D01*
G01X3847Y8129D01*
G01X3837Y8147D01*
G01X3830Y8155D01*
G01X3822Y8161D01*
G01X3813Y8167D01*
G01X3844Y8178D01*
G01X3844Y8250D01*
G01X3611Y8250D01*
G01X3611Y8117D01*
G01X3676Y8117D01*
G01X3676Y8140D01*
G01X3728Y8140D01*
G01X3742Y8139D01*
G01X3753Y8138D01*
G01X3762Y8137D01*
G01X3769Y8136D01*
G01X3773Y8132D01*
G01X3777Y8129D01*
G01X3779Y8124D01*
G01X3780Y8119D01*
G01X3779Y8113D01*
G01X3777Y8109D01*
G01X3774Y8106D01*
G01X3769Y8103D01*
G01X3764Y8102D01*
G01X3755Y8101D01*
G01X3745Y8100D01*
G01X3507Y8100D01*
G01X3496Y8101D01*
G01X3487Y8102D01*
G01X3482Y8103D01*
G01X3478Y8106D01*
G01X3476Y8109D01*
G01X3474Y8113D01*
G01X3473Y8117D01*
G01X3474Y8123D01*
G01X3476Y8127D01*
G01X3478Y8130D01*
G01X3482Y8132D01*
G01X3489Y8134D01*
G01X3499Y8136D01*
G01X3569Y8136D01*
G01X3569Y8250D01*
G37*

%LPD*%
G01X-1450Y5067D02*
G01X-1021Y5067D01*
G01X-1450Y4925D02*
G01X-1450Y5211D01*
G01X-1184Y5346D02*
G01X-1184Y5592D01*
G01X-1225Y5592D01*
G01X-1265Y5571D01*
G01X-1286Y5551D01*
G01X-1307Y5509D01*
G01X-1307Y5448D01*
G01X-1286Y5407D01*
G01X-1246Y5367D01*
G01X-1184Y5346D01*
G01X-1144Y5346D01*
G01X-1082Y5367D01*
G01X-1040Y5407D01*
G01X-1021Y5448D01*
G01X-1021Y5509D01*
G01X-1040Y5551D01*
G01X-1082Y5592D01*
G01X-1307Y5726D02*
G01X-1021Y5951D01*
G01X-1307Y5951D02*
G01X-1021Y5726D01*
G01X-1450Y6148D02*
G01X-1103Y6148D01*
G01X-1040Y6169D01*
G01X-1021Y6209D01*
G01X-1021Y6250D01*
G01X-1307Y6086D02*
G01X-1307Y6230D01*
G01X8250Y5034D02*
G01X8678Y5034D01*
G01X8250Y4892D02*
G01X8250Y5178D01*
G01X8514Y5313D02*
G01X8514Y5559D01*
G01X8475Y5559D01*
G01X8434Y5538D01*
G01X8413Y5517D01*
G01X8393Y5476D01*
G01X8393Y5415D01*
G01X8413Y5375D01*
G01X8453Y5334D01*
G01X8514Y5313D01*
G01X8556Y5313D01*
G01X8618Y5334D01*
G01X8659Y5375D01*
G01X8678Y5415D01*
G01X8678Y5476D01*
G01X8659Y5517D01*
G01X8618Y5559D01*
G01X8393Y5694D02*
G01X8678Y5919D01*
G01X8393Y5919D02*
G01X8678Y5694D01*
G01X8250Y6115D02*
G01X8597Y6115D01*
G01X8659Y6136D01*
G01X8678Y6176D01*
G01X8678Y6217D01*
G01X8393Y6053D02*
G01X8393Y6196D01*
M00*
M02*
